REM MD5 d6e304a759c2ccd3dfc0547c982a5061
FILE "Tetris Plus (Japan).bin" BINARY
  TRACK 01 MODE2/2352
    INDEX 01 00:00:00
  TRACK 02 AUDIO
    INDEX 00 04:56:42
    INDEX 01 04:58:42
  TRACK 03 AUDIO
    INDEX 00 05:28:42
    INDEX 01 05:30:42
  TRACK 04 AUDIO
    INDEX 00 06:00:42
    INDEX 01 06:02:42
  TRACK 05 AUDIO
    INDEX 00 07:09:42
    INDEX 01 07:11:42
  TRACK 06 AUDIO
    INDEX 00 08:15:42
    INDEX 01 08:17:42
  TRACK 07 AUDIO
    INDEX 00 09:42:12
    INDEX 01 09:44:12
  TRACK 08 AUDIO
    INDEX 00 11:00:35
    INDEX 01 11:02:35
  TRACK 09 AUDIO
    INDEX 00 12:13:73
    INDEX 01 12:15:73
  TRACK 10 AUDIO
    INDEX 00 13:35:43
    INDEX 01 13:37:43
  TRACK 11 AUDIO
    INDEX 00 15:05:51
    INDEX 01 15:07:51
  TRACK 12 AUDIO
    INDEX 00 16:17:36
    INDEX 01 16:19:36
  TRACK 13 AUDIO
    INDEX 00 18:44:74
    INDEX 01 18:46:74
  TRACK 14 AUDIO
    INDEX 00 20:53:74
    INDEX 01 20:55:74
  TRACK 15 AUDIO
    INDEX 00 21:39:74
    INDEX 01 21:41:74
  TRACK 16 AUDIO
    INDEX 00 22:27:22
    INDEX 01 22:29:22
  TRACK 17 AUDIO
    INDEX 00 23:27:22
    INDEX 01 23:29:22
  TRACK 18 AUDIO
    INDEX 00 24:23:22
    INDEX 01 24:25:22
  TRACK 19 AUDIO
    INDEX 00 26:25:22
    INDEX 01 26:27:22
  TRACK 20 AUDIO
    INDEX 00 27:33:22
    INDEX 01 27:35:22
  TRACK 21 AUDIO
    INDEX 00 28:38:37
    INDEX 01 28:40:37
  TRACK 22 AUDIO
    INDEX 00 29:40:52
    INDEX 01 29:42:52
  TRACK 23 AUDIO
    INDEX 00 31:35:52
    INDEX 01 31:37:52
  TRACK 24 AUDIO
    INDEX 00 34:04:37
    INDEX 01 34:06:37
  TRACK 25 AUDIO
    INDEX 00 34:13:37
    INDEX 01 34:15:37
  TRACK 26 AUDIO
    INDEX 00 34:20:37
    INDEX 01 34:22:37
  TRACK 27 AUDIO
    INDEX 00 34:48:37
    INDEX 01 34:50:37
  TRACK 28 AUDIO
    INDEX 00 35:34:07
    INDEX 01 35:36:07
  TRACK 29 AUDIO
    INDEX 00 37:23:07
    INDEX 01 37:25:07
  TRACK 30 AUDIO
    INDEX 00 38:25:07
    INDEX 01 38:27:07
  TRACK 31 AUDIO
    INDEX 00 39:02:07
    INDEX 01 39:04:07
  TRACK 32 AUDIO
    INDEX 00 40:06:07
    INDEX 01 40:08:07
  TRACK 33 AUDIO
    INDEX 00 41:00:07
    INDEX 01 41:02:07
  TRACK 34 AUDIO
    INDEX 00 42:44:07
    INDEX 01 42:46:07
  TRACK 35 AUDIO
    INDEX 00 43:16:07
    INDEX 01 43:18:07
  TRACK 36 AUDIO
    INDEX 00 44:25:45
    INDEX 01 44:27:45
  TRACK 37 AUDIO
    INDEX 00 45:31:23
    INDEX 01 45:33:23
  TRACK 38 AUDIO
    INDEX 00 46:17:23
    INDEX 01 46:19:23
  TRACK 39 AUDIO
    INDEX 00 47:04:53
    INDEX 01 47:06:53
  TRACK 40 AUDIO
    INDEX 00 49:09:01
    INDEX 01 49:11:01
  TRACK 41 AUDIO
    INDEX 00 50:17:01
    INDEX 01 50:19:01
  TRACK 42 AUDIO
    INDEX 00 51:21:54
    INDEX 01 51:23:54
  TRACK 43 AUDIO
    INDEX 00 52:23:54
    INDEX 01 52:25:54
  TRACK 44 AUDIO
    INDEX 00 54:13:24
    INDEX 01 54:15:24
  TRACK 45 AUDIO
    INDEX 00 54:21:32
    INDEX 01 54:23:32
  TRACK 46 AUDIO
    INDEX 00 54:28:32
    INDEX 01 54:30:32
  TRACK 47 AUDIO
    INDEX 00 54:56:32
    INDEX 01 54:58:32
  TRACK 48 AUDIO
    INDEX 00 55:42:10
    INDEX 01 55:44:10
  TRACK 49 AUDIO
    INDEX 00 57:31:10
    INDEX 01 57:33:10
  TRACK 50 AUDIO
    INDEX 00 58:32:70
    INDEX 01 58:34:70
  TRACK 51 AUDIO
    INDEX 00 59:10:70
    INDEX 01 59:12:70
  TRACK 52 AUDIO
    INDEX 00 60:13:48
    INDEX 01 60:15:48
REM LEADOUT 63:45:48
